<svg xmlns="http://www.w3.org/2000/svg" width="769.569" height="546.315" viewBox="0 0 769.569 546.315">
    <defs>
        <style>
            .cls-1{fill:#c40046}.cls-2{fill:#1c2a39}
        </style>
    </defs>
    <g id="Rocket" transform="translate(111.748 -158.977)">
        <g id="Group_5237">
            <g id="Group_5189" transform="translate(223.82 228.376)">
                <path id="Path_20134" d="M294.609 480.065c-7.472-63.248-9.664-140.2-11.425-202.034-.892-31.346-1.751-61.515-3.214-79.2-1.092 16.692-1.48 44.382-1.883 73.133-.828 59.206-1.964 140.292-9.311 205.159-7.527 66.451-19.841 103.515-38.287 114.344h99.887c-16.624-10.667-28.13-46.774-35.767-111.402z" class="cls-1" transform="translate(-230.489 -198.83)"/>
            </g>
        </g>
        <path id="Path_20136" d="M280.477 180.118c-4.93 0-16.335 1.921-23.642 2.309a2.794 2.794 0 0 1-2.513-4.511c4.406-5.286 10.835-10.334 13.193-14.218 7.021-11.568 9.427-41.875 12.919-41.875s6.312 30.307 12.918 41.466c2.359 3.985 8.894 9.267 13.295 14.652a2.8 2.8 0 0 1-2.528 4.492c-7.302-.389-18.693-2.315-23.642-2.315z" class="cls-1" transform="translate(-7.339 37.154)"/>
        <path id="Path_20137" d="M355.977 651.658c4.415-34.25 51.888-61.168 95.562-32.041" class="cls-2" transform="translate(-10.298 -31.283)"/>
        <path id="Path_20138" d="M355.977 651.619l.147-1.34.176-1.608c.069-.633.245-1.351.4-2.163l.256-1.285.382-1.38a27.432 27.432 0 0 1 .981-3.077l.619-1.679c.234-.568.507-1.138.77-1.732a38.493 38.493 0 0 1 1.865-3.642c.327-.637.727-1.245 1.128-1.871s.8-1.275 1.237-1.907c.92-1.235 1.839-2.545 2.935-3.767 1.033-1.279 2.228-2.469 3.427-3.711.613-.607 1.271-1.179 1.924-1.77s1.333-1.163 2.04-1.715a54.356 54.356 0 0 1 9.225-6.075c1.648-.919 3.4-1.656 5.142-2.438 1.781-.683 3.559-1.4 5.4-1.93a59.708 59.708 0 0 1 11.176-2.291c1.866-.274 3.74-.286 5.581-.383l2.748.041 1.359.025 1.344.106 2.652.212 2.581.378c1.708.211 3.339.644 4.939.971 1.594.36 3.11.848 4.587 1.258 1.455.493 2.841 1.019 4.178 1.5 1.312.546 2.557 1.1 3.74 1.615s2.244 1.143 3.27 1.659c.509.268 1.007.514 1.475.776l1.327.8 2.327 1.422c1.375.9 2.406 1.686 3.129 2.185l1.1.78-4.517-2.464-2.434-1.178-1.375-.673c-.482-.221-.992-.422-1.513-.646-1.051-.425-2.139-.941-3.335-1.366l-3.755-1.336c-1.335-.383-2.714-.808-4.154-1.2-1.461-.31-2.944-.733-4.5-1.006-1.563-.244-3.152-.593-4.808-.719l-2.5-.273-2.555-.132-1.291-.068-1.3.014-2.634.032c-1.761.154-3.549.2-5.332.465-1.794.178-3.572.541-5.361.878-.89.185-1.769.435-2.657.649s-1.763.473-2.633.754c-1.763.49-3.464 1.159-5.17 1.794-1.664.734-3.347 1.419-4.927 2.283-1.618.789-3.134 1.735-4.66 2.62-1.471.973-2.942 1.913-4.287 2.979a55.062 55.062 0 0 0-7.345 6.619c-1.113 1.122-2.031 2.35-3 3.482-.463.58-.875 1.184-1.3 1.759s-.85 1.142-1.2 1.735c-.745 1.161-1.458 2.279-2.034 3.4-.3.555-.611 1.087-.883 1.62l-.73 1.581c-.5 1.012-.859 2.005-1.21 2.919l-.506 1.316-.37 1.224c-.224.78-.466 1.467-.618 2.086s-.264 1.149-.363 1.577z" class="cls-1" transform="translate(-10.298 -31.243)"/>
        <path id="Path_20141" d="M52.793 578.984c31.7-27.393 116.851-26.371 113.94 69.987" class="cls-2" transform="translate(-1.527 -30.019)"/>
        <path id="Path_20259" d="M52.793 578.984c31.7-27.393 116.851-26.371 113.94 69.987" class="cls-2" transform="rotate(-13 81.167 1165.45)"/>
        <path id="Path_20142" d="M52.793 578.924l1.443-1.314c.477-.421 1.035-.974 1.748-1.561l2.537-1.946a61.187 61.187 0 0 1 7.374-4.522c1.48-.786 3.119-1.488 4.826-2.289l2.7-1.041 1.4-.535 1.461-.466a75.276 75.276 0 0 1 13.024-3.04 79.076 79.076 0 0 1 14.979-.655l3.938.321c1.321.135 2.639.374 3.975.56 1.34.161 2.66.482 3.994.776a37.618 37.618 0 0 1 3.982 1.037c1.312.427 2.658.773 3.954 1.276l3.895 1.538a66.978 66.978 0 0 1 7.47 3.893 59.3 59.3 0 0 1 12.952 10.623c.472.506.97.987 1.417 1.512l1.289 1.608c.824 1.094 1.73 2.121 2.471 3.253a67.724 67.724 0 0 1 4.148 6.823c.6 1.163 1.264 2.282 1.786 3.453s1.006 2.345 1.484 3.506q.363.868.72 1.727c.214.581.388 1.171.583 1.751q.565 1.743 1.118 3.442a32.268 32.268 0 0 1 .925 3.386l.788 3.31c.119.544.264 1.078.357 1.617s.167 1.076.25 1.607q.248 1.589.484 3.118c.14 1.02.353 2.007.42 2.99s.16 1.938.237 2.871.139 1.842.206 2.725.142 1.738.13 2.572l.041 4.658c.013 1.439.029 2.755-.073 3.945-.126 2.38-.281 4.244-.363 5.513s-.136 1.945-.136 1.945l-.127-1.949c-.083-1.27-.222-3.131-.339-5.491-.031-1.181-.209-2.482-.367-3.9s-.314-2.94-.487-4.573c-.063-.818-.215-1.652-.362-2.509s-.3-1.74-.45-2.645-.3-1.833-.452-2.782c-.134-.952-.415-1.9-.622-2.88a103.732 103.732 0 0 0-3.5-12.4l-1.24-3.23c-.214-.543-.407-1.1-.64-1.638l-.77-1.6q-.779-1.606-1.541-3.258c-.526-1.09-1.191-2.119-1.787-3.2a63.3 63.3 0 0 0-4.08-6.26c-.72-1.034-1.6-1.956-2.394-2.947l-1.208-1.482c-.419-.481-.887-.92-1.328-1.383a54.9 54.9 0 0 0-12.058-9.687 62.478 62.478 0 0 0-6.87-3.674l-3.6-1.465c-1.2-.482-2.453-.812-3.671-1.225a73.6 73.6 0 0 0-14.85-2.927 88.677 88.677 0 0 0-14.257-.012c-1.135.088-2.244.265-3.344.388l-1.636.2-1.6.279-3.12.549-2.97.7-1.442.347-1.388.417-2.689.8c-1.71.619-3.366 1.154-4.868 1.781a74.527 74.527 0 0 0-7.626 3.649l-2.705 1.6c-.783.484-1.412.959-1.94 1.312z" class="cls-1" transform="translate(-1.527 -29.959)"/>
        <path id="Path_20260" d="M52.793 578.924l1.443-1.314c.477-.421 1.035-.974 1.748-1.561l2.537-1.946a61.187 61.187 0 0 1 7.374-4.522c1.48-.786 3.119-1.488 4.826-2.289l2.7-1.041 1.4-.535 1.461-.466a75.276 75.276 0 0 1 13.024-3.04 79.076 79.076 0 0 1 14.979-.655l3.938.321c1.321.135 2.639.374 3.975.56 1.34.161 2.66.482 3.994.776a37.618 37.618 0 0 1 3.982 1.037c1.312.427 2.658.773 3.954 1.276l3.895 1.538a66.978 66.978 0 0 1 7.47 3.893 59.3 59.3 0 0 1 12.952 10.623c.472.506.97.987 1.417 1.512l1.289 1.608c.824 1.094 1.73 2.121 2.471 3.253a67.724 67.724 0 0 1 4.148 6.823c.6 1.163 1.264 2.282 1.786 3.453s1.006 2.345 1.484 3.506q.363.868.72 1.727c.214.581.388 1.171.583 1.751q.565 1.743 1.118 3.442a32.268 32.268 0 0 1 .925 3.386l.788 3.31c.119.544.264 1.078.357 1.617s.167 1.076.25 1.607q.248 1.589.484 3.118c.14 1.02.353 2.007.42 2.99s.16 1.938.237 2.871.139 1.842.206 2.725.142 1.738.13 2.572l.041 4.658c.013 1.439.029 2.755-.073 3.945-.126 2.38-.281 4.244-.363 5.513s-.136 1.945-.136 1.945l-.127-1.949c-.083-1.27-.222-3.131-.339-5.491-.031-1.181-.209-2.482-.367-3.9s-.314-2.94-.487-4.573c-.063-.818-.215-1.652-.362-2.509s-.3-1.74-.45-2.645-.3-1.833-.452-2.782c-.134-.952-.415-1.9-.622-2.88a103.732 103.732 0 0 0-3.5-12.4l-1.24-3.23c-.214-.543-.407-1.1-.64-1.638l-.77-1.6q-.779-1.606-1.541-3.258c-.526-1.09-1.191-2.119-1.787-3.2a63.3 63.3 0 0 0-4.08-6.26c-.72-1.034-1.6-1.956-2.394-2.947l-1.208-1.482c-.419-.481-.887-.92-1.328-1.383a54.9 54.9 0 0 0-12.058-9.687 62.478 62.478 0 0 0-6.87-3.674l-3.6-1.465c-1.2-.482-2.453-.812-3.671-1.225a73.6 73.6 0 0 0-14.85-2.927 88.677 88.677 0 0 0-14.257-.012c-1.135.088-2.244.265-3.344.388l-1.636.2-1.6.279-3.12.549-2.97.7-1.442.347-1.388.417-2.689.8c-1.71.619-3.366 1.154-4.868 1.781a74.527 74.527 0 0 0-7.626 3.649l-2.705 1.6c-.783.484-1.412.959-1.94 1.312z" class="cls-1" transform="rotate(-13 81.432 1165.423)"/>
        <path id="Rectangle_3263" d="M0 0H26.019V32.147H0z" class="cls-2" transform="translate(45.116 527.414)"/>
        <path id="Rectangle_3279" d="M0 0H26.019V32.147H0z" class="cls-2" transform="rotate(-13 2504.11 682.043)"/>
        <path id="Path_20143" d="M155.743 636.626c8.364-20.431 59.771-28.75 78.93 13.054" class="cls-2" transform="translate(-4.506 -31.646)"/>
        <path id="Path_20263" d="M155.743 636.626c8.364-20.431 59.771-28.75 78.93 13.054" class="cls-2" transform="rotate(-13 75.517 1179.334)"/>
        <path id="Path_20144" d="M155.743 636.528l.3-1.066a15.815 15.815 0 0 1 1.181-2.962c.357-.6.752-1.259 1.182-1.979.492-.674 1.039-1.412 1.672-2.156a27.076 27.076 0 0 1 2.191-2.213l1.275-1.115 1.416-1.059a14.91 14.91 0 0 1 1.53-1.034c.533-.327 1.07-.684 1.636-1.005 1.144-.609 2.334-1.256 3.609-1.784 1.256-.6 2.606-1.025 3.977-1.521 1.388-.411 2.814-.852 4.3-1.137a45.54 45.54 0 0 1 9.242-1.085 48.176 48.176 0 0 1 18.9 3.375l2.193.934c.733.3 1.409.712 2.107 1.059a39.559 39.559 0 0 1 3.979 2.343c.65.387 1.235.864 1.836 1.3s1.191.876 1.754 1.333c1.076.981 2.191 1.859 3.141 2.858a45.862 45.862 0 0 1 4.96 5.9c.65 1 1.306 1.919 1.855 2.843l1.455 2.676c.87 1.695 1.442 3.261 1.976 4.5.449 1.284.74 2.31.961 2.995.2.691.312 1.06.312 1.06l-.664-.891c-.416-.587-1.057-1.427-1.8-2.517l-1.369-1.714c-.52-.6-.972-1.324-1.611-1.983l-1.9-2.164c-.692-.736-1.454-1.476-2.221-2.259a57.808 57.808 0 0 0-5.322-4.587c-.972-.762-2.05-1.439-3.1-2.188-1.123-.642-2.2-1.388-3.39-2a54.068 54.068 0 0 0-7.477-3.321A54.654 54.654 0 0 0 189.253 623l-1.048-.03-1.042.029c-.692.02-1.387 0-2.071.05-1.369.1-2.727.189-4.051.373-1.338.119-2.616.425-3.895.622-1.254.288-2.5.548-3.671.906a40.257 40.257 0 0 0-6.512 2.4l-1.432.686-1.314.748c-.892.452-1.611 1.037-2.372 1.508-.722.511-1.343 1.057-1.97 1.526l-1.555 1.463c-.409.479-.789.913-1.137 1.291a10.78 10.78 0 0 0-.789 1.06z" class="cls-1" transform="translate(-4.506 -31.548)"/>
        <path id="Path_20264" d="M155.743 636.528l.3-1.066a15.815 15.815 0 0 1 1.181-2.962c.357-.6.752-1.259 1.182-1.979.492-.674 1.039-1.412 1.672-2.156a27.076 27.076 0 0 1 2.191-2.213l1.275-1.115 1.416-1.059a14.91 14.91 0 0 1 1.53-1.034c.533-.327 1.07-.684 1.636-1.005 1.144-.609 2.334-1.256 3.609-1.784 1.256-.6 2.606-1.025 3.977-1.521 1.388-.411 2.814-.852 4.3-1.137a45.54 45.54 0 0 1 9.242-1.085 48.176 48.176 0 0 1 18.9 3.375l2.193.934c.733.3 1.409.712 2.107 1.059a39.559 39.559 0 0 1 3.979 2.343c.65.387 1.235.864 1.836 1.3s1.191.876 1.754 1.333c1.076.981 2.191 1.859 3.141 2.858a45.862 45.862 0 0 1 4.96 5.9c.65 1 1.306 1.919 1.855 2.843l1.455 2.676c.87 1.695 1.442 3.261 1.976 4.5.449 1.284.74 2.31.961 2.995.2.691.312 1.06.312 1.06l-.664-.891c-.416-.587-1.057-1.427-1.8-2.517l-1.369-1.714c-.52-.6-.972-1.324-1.611-1.983l-1.9-2.164c-.692-.736-1.454-1.476-2.221-2.259a57.808 57.808 0 0 0-5.322-4.587c-.972-.762-2.05-1.439-3.1-2.188-1.123-.642-2.2-1.388-3.39-2a54.068 54.068 0 0 0-7.477-3.321A54.654 54.654 0 0 0 189.253 623l-1.048-.03-1.042.029c-.692.02-1.387 0-2.071.05-1.369.1-2.727.189-4.051.373-1.338.119-2.616.425-3.895.622-1.254.288-2.5.548-3.671.906a40.257 40.257 0 0 0-6.512 2.4l-1.432.686-1.314.748c-.892.452-1.611 1.037-2.372 1.508-.722.511-1.343 1.057-1.97 1.526l-1.555 1.463c-.409.479-.789.913-1.137 1.291a10.78 10.78 0 0 0-.789 1.06z" class="cls-1" transform="rotate(-13 75.945 1179.285)"/>
        <path id="Path_20145" d="M27.4 549.123c21.659-18.187 70.543-11.464 69.167 36.1" class="cls-2" transform="translate(-14.006 -29.556)"/>
        <path id="Path_20257" d="M27.4 549.123c21.659-18.187 70.543-11.464 69.167 36.1" class="cls-2" transform="rotate(-13 83.81 1161.884)"/>
        <path id="Path_20146" d="M27.4 549.035l.763-.836a21.147 21.147 0 0 1 2.308-2.234l.846-.731.97-.727a22.867 22.867 0 0 1 2.265-1.551 27.836 27.836 0 0 1 2.728-1.546c.492-.252 1-.519 1.528-.759l1.646-.7c1.117-.51 2.341-.839 3.59-1.282.63-.2 1.284-.346 1.944-.52s1.333-.347 2.026-.465a45.1 45.1 0 0 1 8.827-.9l2.342.04c.787.038 1.576.129 2.373.193s1.6.174 2.4.3 1.61.234 2.405.44a41.647 41.647 0 0 1 9.446 3.188c.749.385 1.523.717 2.243 1.157l2.17 1.289a35.714 35.714 0 0 1 10.522 10.231 38.332 38.332 0 0 1 4.17 7.969c.422 1.359.914 2.646 1.226 3.934.269 1.3.619 2.525.78 3.734s.326 2.358.425 3.453q.061 1.646.118 3.115c.03 1.947-.155 3.641-.228 5.016-.169 1.379-.363 2.451-.469 3.179l-.191 1.114-.2-1.119c-.111-.726-.314-1.788-.491-3.126-.14-.662-.3-1.4-.463-2.195-.2-.79-.283-1.658-.564-2.552l-.748-2.849-1.007-3.072c-.351-1.072-.842-2.12-1.273-3.231-.463-1.1-1.051-2.179-1.584-3.31a41.556 41.556 0 0 0-4.333-6.459c-.806-1.068-1.8-2-2.715-3.014-1.036-.9-2.006-1.881-3.136-2.7-1.062-.9-2.28-1.617-3.438-2.418l-1.839-1.057c-.6-.367-1.274-.626-1.9-.953a41.856 41.856 0 0 0-8.007-2.906 51.509 51.509 0 0 0-8.244-1.382 52.892 52.892 0 0 0-7.91-.051c-1.269.045-2.485.248-3.681.363-1.174.208-2.34.335-3.422.6l-1.618.34c-.521.126-1.02.283-1.518.41s-.988.25-1.449.4l-1.347.452c-.891.262-1.677.613-2.431.9l-1.085.422-.946.449c-.6.3-1.155.528-1.63.773l-1.19.652z" class="cls-1" transform="translate(-14.006 -29.468)"/>
        <path id="Path_20258" d="M27.4 549.035l.763-.836a21.147 21.147 0 0 1 2.308-2.234l.846-.731.97-.727a22.867 22.867 0 0 1 2.265-1.551 27.836 27.836 0 0 1 2.728-1.546c.492-.252 1-.519 1.528-.759l1.646-.7c1.117-.51 2.341-.839 3.59-1.282.63-.2 1.284-.346 1.944-.52s1.333-.347 2.026-.465a45.1 45.1 0 0 1 8.827-.9l2.342.04c.787.038 1.576.129 2.373.193s1.6.174 2.4.3 1.61.234 2.405.44a41.647 41.647 0 0 1 9.446 3.188c.749.385 1.523.717 2.243 1.157l2.17 1.289a35.714 35.714 0 0 1 10.522 10.231 38.332 38.332 0 0 1 4.17 7.969c.422 1.359.914 2.646 1.226 3.934.269 1.3.619 2.525.78 3.734s.326 2.358.425 3.453q.061 1.646.118 3.115c.03 1.947-.155 3.641-.228 5.016-.169 1.379-.363 2.451-.469 3.179l-.191 1.114-.2-1.119c-.111-.726-.314-1.788-.491-3.126-.14-.662-.3-1.4-.463-2.195-.2-.79-.283-1.658-.564-2.552l-.748-2.849-1.007-3.072c-.351-1.072-.842-2.12-1.273-3.231-.463-1.1-1.051-2.179-1.584-3.31a41.556 41.556 0 0 0-4.333-6.459c-.806-1.068-1.8-2-2.715-3.014-1.036-.9-2.006-1.881-3.136-2.7-1.062-.9-2.28-1.617-3.438-2.418l-1.839-1.057c-.6-.367-1.274-.626-1.9-.953a41.856 41.856 0 0 0-8.007-2.906 51.509 51.509 0 0 0-8.244-1.382 52.892 52.892 0 0 0-7.91-.051c-1.269.045-2.485.248-3.681.363-1.174.208-2.34.335-3.422.6l-1.618.34c-.521.126-1.02.283-1.518.41s-.988.25-1.449.4l-1.347.452c-.891.262-1.677.613-2.431.9l-1.085.422-.946.449c-.6.3-1.155.528-1.63.773l-1.19.652z" class="cls-1" transform="rotate(-13 84.197 1161.84)"/>
        <path id="Path_20147" d="M0 507.253v3.972s8.135 20.726 7.79 30.909l48.364 40.526C69.781 534.347 31.608 505.476 0 507.253z" class="cls-2" transform="rotate(-38 5.016 606.643)"/>
        <path id="Path_20148" d="M60.783 556.4c-.108-1.782-.377-3.617-.591-5.518a54.168 54.168 0 0 0-3.328-11.582 52.827 52.827 0 0 0-2.774-5.779c-.537-.942-1.139-1.853-1.714-2.789-.3-.461-.585-.931-.9-1.387l-1-1.325a53.832 53.832 0 0 0-9.2-9.727c-.885-.69-1.713-1.457-2.644-2.081l-2.732-1.931c-.934-.61-1.9-1.159-2.858-1.729-.941-.59-1.938-1.072-2.923-1.565a61.631 61.631 0 0 0-5.98-2.644 61.052 61.052 0 0 0-6.1-1.862 60.241 60.241 0 0 0-6.033-1.209 57.624 57.624 0 0 0-5.872-.454 32.636 32.636 0 0 0-6.135.2v4.359a43.163 43.163 0 0 1 5.78.389c1.733.151 3.489.555 5.282.867 1.767.483 3.595.836 5.385 1.477 1.819.528 3.594 1.287 5.412 1.97 1.759.838 3.572 1.6 5.292 2.589 1.776.882 3.416 2.029 5.119 3.074l2.442 1.748c.831.562 1.557 1.26 2.342 1.882a53.358 53.358 0 0 1 8.319 8.529l.922 1.151c.287.4.551.809.826 1.211.546.807 1.125 1.591 1.641 2.406.944 1.682 1.982 3.295 2.74 5.019a57.6 57.6 0 0 1 3.81 10.205c.367 1.7.77 3.364 1.06 4.99.211 1.638.491 3.225.629 4.764l.292 4.447-.024 4.045c.05 1.283-.131 2.465-.177 3.576-.074 1.113-.141 2.134-.2 3.058-.27 1.826-.427 3.285-.559 4.278l-.178 1.531.546-1.435c.339-.943.874-2.322 1.482-4.11.243-.911.512-1.92.8-3.018a32.265 32.265 0 0 0 .828-3.6q.32-1.965.682-4.174l.342-4.7c.075-1.646-.034-3.361-.051-5.146z" class="cls-1" transform="rotate(-38 5.117 606.608)"/>
        <path id="Path_20149" d="M302.776 652.86c19.719-28.926 60.027-12.47 66.987 5.6" class="cls-2" transform="translate(-8.759 -32.148)"/>
        <path id="Path_20150" d="M302.776 652.789l.424-.807c.3-.515.668-1.3 1.257-2.242q.473-.7 1.048-1.542c.191-.282.393-.579.612-.877l.732-.871a29.66 29.66 0 0 1 3.7-3.82 31.2 31.2 0 0 1 5.209-3.664l1.525-.824 1.624-.72a32.752 32.752 0 0 1 3.451-1.26c.6-.185 1.209-.323 1.825-.479a18.287 18.287 0 0 1 1.873-.4l1.912-.32 1.947-.175a39.191 39.191 0 0 1 7.9.2 44.995 44.995 0 0 1 14.7 4.526 42.637 42.637 0 0 1 6.022 3.694 37.731 37.731 0 0 1 4.757 4.156c.684.7 1.3 1.411 1.873 2.085.529.724 1.062 1.372 1.493 2.041a23.336 23.336 0 0 1 1.991 3.564c.219.522.408.987.561 1.392s.23.776.317 1.06l.238.88-.493-.767c-.161-.247-.337-.561-.584-.907-.262-.338-.551-.728-.868-1.163a33.742 33.742 0 0 0-2.593-2.875c-.516-.532-1.139-1.034-1.746-1.592-.657-.515-1.3-1.1-2.038-1.631s-1.491-1.1-2.33-1.606c-.809-.546-1.68-1.057-2.576-1.575a51.929 51.929 0 0 0-5.834-2.848c-1.027-.455-2.115-.815-3.191-1.225-1.105-.336-2.2-.73-3.343-1.015a46.018 46.018 0 0 0-6.951-1.376 41.488 41.488 0 0 0-7.033-.322 39.912 39.912 0 0 0-6.745.829c-1.064.281-2.138.492-3.14.851l-1.506.488-1.433.582a37.093 37.093 0 0 0-5.158 2.624 43.338 43.338 0 0 0-4.045 2.9l-.853.679-.742.679c-.487.437-.932.839-1.336 1.2-1.551 1.575-2.453 2.473-2.453 2.473z" class="cls-1" transform="translate(-8.759 -32.078)"/>
        <path id="Path_20151" d="M216.324 673.182c6.742-38.278 67.754-62.285 103.38-10.874" class="cls-2" transform="translate(-6.258 -32.026)"/>
        <path id="Path_20152" d="M216.324 673.053l.08-1.51.121-1.807c.047-.707.225-1.528.378-2.458q.125-.7.266-1.474c.119-.506.275-1.021.421-1.569a28.427 28.427 0 0 1 1.125-3.506l.743-1.908c.267-.652.612-1.284.93-1.958.334-.665.652-1.368 1.049-2.041s.821-1.359 1.245-2.06c.217-.349.42-.716.659-1.059l.746-1.025c.506-.689 1.013-1.4 1.553-2.111a54.544 54.544 0 0 1 3.689-4.092 50.835 50.835 0 0 1 9.329-7.442 52.441 52.441 0 0 1 11.572-5.533c1.038-.355 2.075-.732 3.152-.991 1.069-.28 2.136-.592 3.226-.818l3.29-.6c1.1-.2 2.219-.269 3.328-.407a53.69 53.69 0 0 1 13.313.384 55.71 55.71 0 0 1 17.911 6.025c.9.426 1.7 1.01 2.537 1.5.821.516 1.65.993 2.422 1.532q1.13.844 2.231 1.662a25.6 25.6 0 0 1 2.109 1.66l1.933 1.723a23.063 23.063 0 0 1 1.808 1.7c1.11 1.185 2.191 2.288 3.166 3.381l2.586 3.253c.824 1 1.455 2.051 2.081 2.978l1.669 2.571c.906 1.622 1.561 2.918 2.027 3.784l.685 1.345-1.092-1.052c-.693-.7-1.737-1.691-2.994-2.985l-2.224-2.011c-.823-.711-1.614-1.566-2.616-2.321l-3.045-2.507-3.5-2.56c-1.215-.884-2.571-1.669-3.91-2.551-1.359-.854-2.842-1.6-4.307-2.432-.757-.379-1.54-.722-2.317-1.1-.79-.347-1.545-.789-2.383-1.07-1.656-.6-3.28-1.352-5.04-1.818-.871-.25-1.726-.574-2.622-.776l-2.691-.644c-.9-.243-1.832-.317-2.751-.487a24.246 24.246 0 0 0-2.786-.4 57.342 57.342 0 0 0-22.595 2.081c-1.826.5-3.568 1.206-5.317 1.841-1.7.749-3.4 1.47-4.993 2.33a54.951 54.951 0 0 0-8.833 5.645c-1.381.971-2.528 2.129-3.757 3.145l-1.665 1.644-.814.806c-.258.274-.5.559-.745.834l-1.45 1.631c-.469.538-.855 1.113-1.286 1.642-.41.542-.848 1.053-1.208 1.589l-1.044 1.573a32.676 32.676 0 0 0-1.785 2.946c-.263.466-.533.912-.761 1.346l-.6 1.259c-.369.809-.762 1.514-1.026 2.179s-.478 1.23-.656 1.689z" class="cls-1" transform="translate(-6.258 -31.897)"/>
        <path id="Path_20153" d="M307.042 671.473c7.71-14.821 31.091-18.312 41.5.921" class="cls-2" transform="translate(-8.882 -32.785)"/>
        <path id="Path_20154" d="M307.042 671.415l.186-.555a12.4 12.4 0 0 1 .612-1.54 17.828 17.828 0 0 1 1.252-2.305c.289-.415.589-.869.929-1.331.361-.443.738-.92 1.173-1.377a21.01 21.01 0 0 1 3.05-2.742 22.807 22.807 0 0 1 8.706-3.9 23.019 23.019 0 0 1 5.136-.513 23.589 23.589 0 0 1 5.131.679 22.62 22.62 0 0 1 4.671 1.784 21.417 21.417 0 0 1 3.848 2.582 20.988 20.988 0 0 1 2.872 2.92 20.048 20.048 0 0 1 1.945 2.8 20.79 20.79 0 0 1 1.193 2.309c.3.654.461 1.2.6 1.552l.192.552s-.545-.621-1.446-1.688c-.489-.506-1.025-1.156-1.72-1.818-.667-.686-1.476-1.394-2.351-2.14a27.371 27.371 0 0 0-3.007-2.124 24.394 24.394 0 0 0-3.586-1.827 26.227 26.227 0 0 0-4.065-1.235 25.047 25.047 0 0 0-4.342-.467 24.013 24.013 0 0 0-4.368.325 24.944 24.944 0 0 0-4.144 1.052 25.224 25.224 0 0 0-3.708 1.609c-.573.3-1.123.615-1.639.947-.538.3-1.014.659-1.488.988-.924.683-1.74 1.363-2.449 2-.675.667-1.29 1.245-1.737 1.766-.475.5-.827.953-1.07 1.243z" class="cls-1" transform="translate(-8.882 -32.728)"/>
        <path id="Path_20155" d="M269.971 751.924c.582-16.295 17.748-25.532 31.948-12.706" class="cls-2" transform="translate(-34.309 -49.026)"/>
        <path id="Path_20156" d="M269.97 751.9l-.018-.5c0-.327-.062-.8-.018-1.417l.049-1.023c.018-.372.093-.767.146-1.2a18.415 18.415 0 0 1 .635-2.834c.143-.517.359-1.032.55-1.581.236-.528.467-1.085.765-1.627a17.787 17.787 0 0 1 5.222-6.126 17.16 17.16 0 0 1 16.033-2.273 18.462 18.462 0 0 1 3.146 1.445 19.607 19.607 0 0 1 2.407 1.614 21.357 21.357 0 0 1 1.692 1.434c.448.419.764.786.994 1.017s.346.362.346.362-.575-.39-1.579-1.076c-.524-.306-1.12-.73-1.862-1.118-.723-.416-1.57-.822-2.5-1.235a23.242 23.242 0 0 0-3.078-1.062 19.957 19.957 0 0 0-3.534-.6 18.31 18.31 0 0 0-3.789.143 17.216 17.216 0 0 0-7.189 2.865 18.925 18.925 0 0 0-2.873 2.486 20.741 20.741 0 0 0-2.19 2.841 21.582 21.582 0 0 0-1.525 2.869 25.02 25.02 0 0 0-.956 2.61c-.237.8-.413 1.5-.533 2.095-.14.587-.2 1.069-.26 1.389z" class="cls-1" transform="translate(-34.308 -48.999)"/>
        <path id="Path_20157" d="M302.246 739.691c6.13-14.96 27.892-10.372 30.352 1.755" class="cls-2" transform="translate(-35.243 -48.942)"/>
        <path id="Path_20158" d="M302.246 739.663l.138-.422c.1-.273.2-.689.412-1.187a13.364 13.364 0 0 1 .888-1.778 8.772 8.772 0 0 1 .665-1.032 9.369 9.369 0 0 1 .856-1.072 10.412 10.412 0 0 1 1.049-1.072 11.361 11.361 0 0 1 1.257-1.012 13.439 13.439 0 0 1 3.071-1.663 16.832 16.832 0 0 1 7.468-1.082 19.2 19.2 0 0 1 3.78.7 17.308 17.308 0 0 1 3.443 1.4 16.311 16.311 0 0 1 2.881 1.937 13.724 13.724 0 0 1 2.136 2.253 11.19 11.19 0 0 1 2.018 4.1 7.286 7.286 0 0 1 .232 1.246l.059.44-.161-.415a10.148 10.148 0 0 0-.492-1.139 13 13 0 0 0-2.5-3.508 16.678 16.678 0 0 0-2.176-1.832 19.894 19.894 0 0 0-2.757-1.554 19.46 19.46 0 0 0-6.612-1.693 16.366 16.366 0 0 0-3.464.05 15.9 15.9 0 0 0-3.273.7 14.923 14.923 0 0 0-2.868 1.272 12.823 12.823 0 0 0-1.224.8 9.192 9.192 0 0 0-1.081.854 10.592 10.592 0 0 0-.923.883 8.1 8.1 0 0 0-.779.862 18.988 18.988 0 0 0-1.146 1.52c-.58.909-.897 1.444-.897 1.444z" class="cls-1" transform="translate(-35.243 -48.913)"/>
        <path id="Path_20159" d="M210.464 702.881c1.436-27.161 36.066-32.149 45.3-8.871" class="cls-2" transform="translate(-6.089 -33.365)"/>
        <path id="Path_20160" d="M210.461 702.824l-.043-.737c-.006-.482-.09-1.184-.056-2.083a23.146 23.146 0 0 1 .316-3.286 16.462 16.462 0 0 1 .4-2 16.838 16.838 0 0 1 .671-2.18 18.894 18.894 0 0 1 .966-2.307c.19-.389.376-.794.6-1.18s.479-.771.724-1.164a10.544 10.544 0 0 1 .805-1.161c.289-.38.574-.775.883-1.157a22.787 22.787 0 0 1 2.1-2.158 21.988 21.988 0 0 1 5.2-3.575 23.364 23.364 0 0 1 6.173-2.136 24.006 24.006 0 0 1 12.7.865 23.157 23.157 0 0 1 5.22 2.695 13.431 13.431 0 0 1 1.1.823 13.282 13.282 0 0 1 1.026.845 23.31 23.31 0 0 1 1.753 1.8 19.586 19.586 0 0 1 2.514 3.534c.3.57.621 1.072.831 1.585l.576 1.4a18.715 18.715 0 0 1 .642 2c.127.464.2.711.2.711l-.4-.622c-.268-.4-.6-1.015-1.121-1.729l-.855-1.176c-.317-.419-.7-.844-1.081-1.308a15.7 15.7 0 0 0-1.315-1.386 18.741 18.741 0 0 0-1.546-1.411 24.211 24.211 0 0 0-3.844-2.593 24.717 24.717 0 0 0-4.739-1.88 25.937 25.937 0 0 0-5.349-.8 24.025 24.025 0 0 0-5.549.462 22.313 22.313 0 0 0-5.293 1.713c-.85.359-1.629.838-2.425 1.271-.75.5-1.514.974-2.194 1.536-.725.511-1.32 1.146-1.975 1.7-.3.3-.585.616-.876.918a8.684 8.684 0 0 0-.817.936l-.755.954c-.243.319-.437.661-.667.977a16.708 16.708 0 0 0-1.185 1.929 20.545 20.545 0 0 0-.934 1.885 15.068 15.068 0 0 0-.738 1.77c-.458 1.13-.708 2.145-.982 2.991-.227.858-.37 1.557-.487 2.021s-.174.708-.174.708z" class="cls-1" transform="translate(-6.085 -33.308)"/>
        <path id="Path_20161" d="M169 721.178c-5.151-27.353 33.012-47.986 55.018-23.623" class="cls-2" transform="rotate(54.97 208.567 649.208)"/>
        <path id="Path_20266" d="M169 721.178c-5.151-27.353 33.012-47.986 55.018-23.623" class="cls-2" transform="rotate(7 289.254 -343.286)"/>
        <path id="Path_20162" d="M168.988 721.152l-.177-.88a17.707 17.707 0 0 1-.408-2.505c-.043-.548-.119-1.158-.147-1.824 0-.666.007-1.386.01-2.155.047-.768.148-1.584.227-2.45.143-.854.331-1.75.544-2.68a26.923 26.923 0 0 1 2.235-5.747 32.026 32.026 0 0 1 1.72-2.911 31.1 31.1 0 0 1 2.177-2.783 35.82 35.82 0 0 1 2.536-2.633 33.781 33.781 0 0 1 16.88-8.264 30.156 30.156 0 0 1 7.378-.415 31.715 31.715 0 0 1 3.511.393l1.67.375a12.987 12.987 0 0 1 1.61.43l1.545.492c.506.165.982.39 1.459.586s.946.384 1.389.608l1.289.684a20.813 20.813 0 0 1 2.334 1.408 18.81 18.81 0 0 1 1.975 1.453 34.129 34.129 0 0 1 2.967 2.631c.787.764 1.308 1.46 1.705 1.888l.588.676-.665-.6c-.44-.385-1.051-.986-1.884-1.682a33.47 33.47 0 0 0-3.136-2.324 18.139 18.139 0 0 0-2.041-1.242 23.168 23.168 0 0 0-2.345-1.208l-1.279-.579c-.438-.188-.906-.327-1.368-.5-.469-.152-.929-.355-1.421-.489l-1.494-.4a11.733 11.733 0 0 0-1.551-.34l-1.6-.284c-1.094-.077-2.2-.285-3.339-.265a33.888 33.888 0 0 0-20.175 6.145c-.994.662-1.886 1.441-2.8 2.169a34.486 34.486 0 0 0-2.467 2.426c-.8.809-1.448 1.724-2.148 2.568a30.423 30.423 0 0 0-1.754 2.687c-.254.455-.52.9-.756 1.348l-.632 1.36a10.238 10.238 0 0 0-.56 1.339l-.486 1.314c-.263.875-.484 1.727-.7 2.537-.148.823-.315 1.6-.425 2.345l-.193 2.1c-.029.649-.006 1.244-.012 1.786a23.66 23.66 0 0 0 .137 2.525c.052.575.077.887.077.887z" class="cls-1" transform="rotate(54.97 208.539 649.202)"/>
        <path id="Path_20265" d="M168.988 721.152l-.177-.88a17.707 17.707 0 0 1-.408-2.505c-.043-.548-.119-1.158-.147-1.824 0-.666.007-1.386.01-2.155.047-.768.148-1.584.227-2.45.143-.854.331-1.75.544-2.68a26.923 26.923 0 0 1 2.235-5.747 32.026 32.026 0 0 1 1.72-2.911 31.1 31.1 0 0 1 2.177-2.783 35.82 35.82 0 0 1 2.536-2.633 33.781 33.781 0 0 1 16.88-8.264 30.156 30.156 0 0 1 7.378-.415 31.715 31.715 0 0 1 3.511.393l1.67.375a12.987 12.987 0 0 1 1.61.43l1.545.492c.506.165.982.39 1.459.586s.946.384 1.389.608l1.289.684a20.813 20.813 0 0 1 2.334 1.408 18.81 18.81 0 0 1 1.975 1.453 34.129 34.129 0 0 1 2.967 2.631c.787.764 1.308 1.46 1.705 1.888l.588.676-.665-.6c-.44-.385-1.051-.986-1.884-1.682a33.47 33.47 0 0 0-3.136-2.324 18.139 18.139 0 0 0-2.041-1.242 23.168 23.168 0 0 0-2.345-1.208l-1.279-.579c-.438-.188-.906-.327-1.368-.5-.469-.152-.929-.355-1.421-.489l-1.494-.4a11.733 11.733 0 0 0-1.551-.34l-1.6-.284c-1.094-.077-2.2-.285-3.339-.265a33.888 33.888 0 0 0-20.175 6.145c-.994.662-1.886 1.441-2.8 2.169a34.486 34.486 0 0 0-2.467 2.426c-.8.809-1.448 1.724-2.148 2.568a30.423 30.423 0 0 0-1.754 2.687c-.254.455-.52.9-.756 1.348l-.632 1.36a10.238 10.238 0 0 0-.56 1.339l-.486 1.314c-.263.875-.484 1.727-.7 2.537-.148.823-.315 1.6-.425 2.345l-.193 2.1c-.029.649-.006 1.244-.012 1.786a23.66 23.66 0 0 0 .137 2.525c.052.575.077.887.077.887z" class="cls-1" transform="rotate(7 289.044 -343.232)"/>
        <path id="Path_20163" d="M81.754 661.078C86.746 636 115.6 631.8 128.469 651.955" class="cls-2" transform="translate(3.686 -24.348)"/>
        <path id="Path_20261" d="M81.754 661.078C86.746 636 115.6 631.8 128.469 651.955" class="cls-2" transform="rotate(-13 71.981 1170.223)"/>
        <path id="Path_20164" d="M81.754 661.021l.052-.708c.054-.459.063-1.139.21-1.992a24.366 24.366 0 0 1 .67-3.092 23.722 23.722 0 0 1 1.42-3.883 24.727 24.727 0 0 1 2.5-4.284 23.159 23.159 0 0 1 3.819-4.106 22.254 22.254 0 0 1 5.067-3.306 23.611 23.611 0 0 1 5.952-1.983 24.263 24.263 0 0 1 12.189.779 26.019 26.019 0 0 1 5.092 2.34 24.88 24.88 0 0 1 3.945 3.011 17.916 17.916 0 0 1 1.54 1.55c.456.522.9 1.005 1.252 1.508s.732.929 1.006 1.384l.759 1.233c.466.732.717 1.382.937 1.786l.3.64-.49-.516c-.322-.332-.755-.846-1.365-1.44s-1.341-1.311-2.231-2.065a18.105 18.105 0 0 0-1.445-1.151c-.5-.406-1.063-.791-1.65-1.179a30.289 30.289 0 0 0-3.938-2.18 28.694 28.694 0 0 0-4.671-1.611 27.838 27.838 0 0 0-5.171-.71 25.892 25.892 0 0 0-5.334.433 22.925 22.925 0 0 0-5.1 1.585c-.821.337-1.584.771-2.359 1.17-.732.469-1.485.9-2.159 1.417-.711.473-1.324 1.047-1.968 1.563-.6.567-1.2 1.111-1.731 1.7a22.93 22.93 0 0 0-1.51 1.758 18.19 18.19 0 0 0-1.3 1.76c-.421.569-.738 1.167-1.079 1.72a16.1 16.1 0 0 0-.9 1.616c-.557 1.033-.943 1.966-1.3 2.74z" class="cls-1" transform="translate(3.686 -24.292)"/>
        <path id="Path_20262" d="M81.754 661.021l.052-.708c.054-.459.063-1.139.21-1.992a24.366 24.366 0 0 1 .67-3.092 23.722 23.722 0 0 1 1.42-3.883 24.727 24.727 0 0 1 2.5-4.284 23.159 23.159 0 0 1 3.819-4.106 22.254 22.254 0 0 1 5.067-3.306 23.611 23.611 0 0 1 5.952-1.983 24.263 24.263 0 0 1 12.189.779 26.019 26.019 0 0 1 5.092 2.34 24.88 24.88 0 0 1 3.945 3.011 17.916 17.916 0 0 1 1.54 1.55c.456.522.9 1.005 1.252 1.508s.732.929 1.006 1.384l.759 1.233c.466.732.717 1.382.937 1.786l.3.64-.49-.516c-.322-.332-.755-.846-1.365-1.44s-1.341-1.311-2.231-2.065a18.105 18.105 0 0 0-1.445-1.151c-.5-.406-1.063-.791-1.65-1.179a30.289 30.289 0 0 0-3.938-2.18 28.694 28.694 0 0 0-4.671-1.611 27.838 27.838 0 0 0-5.171-.71 25.892 25.892 0 0 0-5.334.433 22.925 22.925 0 0 0-5.1 1.585c-.821.337-1.584.771-2.359 1.17-.732.469-1.485.9-2.159 1.417-.711.473-1.324 1.047-1.968 1.563-.6.567-1.2 1.111-1.731 1.7a22.93 22.93 0 0 0-1.51 1.758 18.19 18.19 0 0 0-1.3 1.76c-.421.569-.738 1.167-1.079 1.72a16.1 16.1 0 0 0-.9 1.616c-.557 1.033-.943 1.966-1.3 2.74z" class="cls-1" transform="rotate(-13 72.23 1170.193)"/>
        <path id="Path_20165" d="M424.408 637.609c0-23.222 15.233-29.215 31.629-24.176" class="cls-2" transform="translate(-12.278 -31.415)"/>
        <path id="Path_20166" d="M424.392 637.566s-.152-.76-.341-2.09c-.058-.668-.163-1.5-.185-2.445l-.026-1.513c-.009-.532.056-1.093.085-1.682a27.238 27.238 0 0 1 .536-3.793 22.987 22.987 0 0 1 1.332-4.142 18.594 18.594 0 0 1 14.763-11.4 21.765 21.765 0 0 1 4.354-.216 24.421 24.421 0 0 1 3.811.477 25.627 25.627 0 0 1 3.1.819 23.331 23.331 0 0 1 2.29.875c.628.246 1.093.523 1.42.673l.491.257-2.1-.181c-.66-.064-1.465-.1-2.374-.162-.912-.042-1.935-.054-3.037-.06a32.547 32.547 0 0 0-7.286.9 20.492 20.492 0 0 0-3.761 1.322 18.5 18.5 0 0 0-3.448 2.088 17.2 17.2 0 0 0-2.894 2.807 20.592 20.592 0 0 0-2.238 3.3 28.66 28.66 0 0 0-1.63 3.477c-.438 1.159-.83 2.281-1.14 3.344s-.558 2.056-.773 2.946-.374 1.678-.519 2.322c-.246 1.323-.43 2.077-.43 2.077z" class="cls-1" transform="translate(-12.261 -31.371)"/>
        <path id="Path_20167" d="M453.189 625.617c-9-50.024 35.821-82.824 82.2-62.008" class="cls-2" transform="rotate(21 542.754 558.578)"/>
        <path id="Path_20270" d="M453.189 625.617c-9-50.024 35.821-82.824 82.2-62.008" class="cls-2" transform="rotate(30 487.187 727.657)"/>
        <path id="Path_20168" d="M453.158 625.564l-.35-1.418c-.111-.463-.248-1.034-.407-1.705a21.953 21.953 0 0 1-.481-2.325c-.141-.887-.3-1.868-.467-2.937-.2-1.073-.217-2.237-.342-3.486-.044-.624-.115-1.27-.141-1.935l-.029-2.057q-.014-1.057-.008-2.171l.151-2.272a54.992 54.992 0 0 1 1.552-9.941c.222-.869.5-1.735.76-2.622a26.655 26.655 0 0 1 .88-2.661l1.026-2.682 1.251-2.652a29.638 29.638 0 0 1 1.4-2.634c.5-.868.978-1.763 1.57-2.593.571-.843 1.128-1.705 1.725-2.544l1.927-2.438a54.976 54.976 0 0 1 9.161-8.649 53.858 53.858 0 0 1 10.966-6.183 52.217 52.217 0 0 1 11.657-3.41 56.359 56.359 0 0 1 11.26-.843c1.789.1 3.531.1 5.194.354l2.453.311c.8.123 1.575.294 2.337.434l2.232.436 2.1.555 1.981.545c.635.2 1.244.421 1.836.621 1.177.43 2.305.731 3.288 1.193l2.723 1.17a23.253 23.253 0 0 1 2.145 1.035l1.56.811 1.288.685-1.4-.427c-.914-.269-2.223-.739-3.927-1.2s-3.765-1.019-6.162-1.477c-.6-.121-1.209-.262-1.844-.379l-1.973-.285-2.065-.319-2.176-.208c-.741-.062-1.494-.154-2.264-.2l-2.353-.061c-1.593-.1-3.24 0-4.926.028a61.762 61.762 0 0 0-10.459 1.441l-1.343.292-1.33.379c-.887.265-1.8.476-2.678.788l-2.657.954c-.888.32-1.745.736-2.625 1.1a54.025 54.025 0 0 0-9.956 5.767 55.325 55.325 0 0 0-8.455 7.787 54.034 54.034 0 0 0-6.4 9.154l-1.278 2.391-1.1 2.427a23.721 23.721 0 0 0-.991 2.417c-.3.81-.619 1.6-.883 2.4l-.708 2.39-.346 1.173-.271 1.171-.543 2.289c-.18.75-.263 1.5-.4 2.233s-.24 1.452-.356 2.154l-.213 2.077-.218 1.979c-.054.643-.061 1.27-.093 1.879-.152 2.439-.106 4.556-.087 6.32s.171 3.164.209 4.112z" class="cls-1" transform="rotate(21 542.595 558.638)"/>
        <path id="Path_20271" d="M453.158 625.564l-.35-1.418c-.111-.463-.248-1.034-.407-1.705a21.953 21.953 0 0 1-.481-2.325c-.141-.887-.3-1.868-.467-2.937-.2-1.073-.217-2.237-.342-3.486-.044-.624-.115-1.27-.141-1.935l-.029-2.057q-.014-1.057-.008-2.171l.151-2.272a54.992 54.992 0 0 1 1.552-9.941c.222-.869.5-1.735.76-2.622a26.655 26.655 0 0 1 .88-2.661l1.026-2.682 1.251-2.652a29.638 29.638 0 0 1 1.4-2.634c.5-.868.978-1.763 1.57-2.593.571-.843 1.128-1.705 1.725-2.544l1.927-2.438a54.976 54.976 0 0 1 9.161-8.649 53.858 53.858 0 0 1 10.966-6.183 52.217 52.217 0 0 1 11.657-3.41 56.359 56.359 0 0 1 11.26-.843c1.789.1 3.531.1 5.194.354l2.453.311c.8.123 1.575.294 2.337.434l2.232.436 2.1.555 1.981.545c.635.2 1.244.421 1.836.621 1.177.43 2.305.731 3.288 1.193l2.723 1.17a23.253 23.253 0 0 1 2.145 1.035l1.56.811 1.288.685-1.4-.427c-.914-.269-2.223-.739-3.927-1.2s-3.765-1.019-6.162-1.477c-.6-.121-1.209-.262-1.844-.379l-1.973-.285-2.065-.319-2.176-.208c-.741-.062-1.494-.154-2.264-.2l-2.353-.061c-1.593-.1-3.24 0-4.926.028a61.762 61.762 0 0 0-10.459 1.441l-1.343.292-1.33.379c-.887.265-1.8.476-2.678.788l-2.657.954c-.888.32-1.745.736-2.625 1.1a54.025 54.025 0 0 0-9.956 5.767 55.325 55.325 0 0 0-8.455 7.787 54.034 54.034 0 0 0-6.4 9.154l-1.278 2.391-1.1 2.427a23.721 23.721 0 0 0-.991 2.417c-.3.81-.619 1.6-.883 2.4l-.708 2.39-.346 1.173-.271 1.171-.543 2.289c-.18.75-.263 1.5-.4 2.233s-.24 1.452-.356 2.154l-.213 2.077-.218 1.979c-.054.643-.061 1.27-.093 1.879-.152 2.439-.106 4.556-.087 6.32s.171 3.164.209 4.112z" class="cls-1" transform="rotate(30 487.07 727.69)"/>
        <path id="Path_20268" d="M499.964 579.862l51.536-24.288c1.853-11.268 4.055-23.943 9.024-33.657l.058-6.8v-1.7c-37.541-5.657-67.434 28.559-60.618 66.445z" class="cls-2" transform="rotate(30 485.466 724.48)"/>
        <path id="Path_20269" d="M560.553 510.048c-1.121-.122-.385-.062-1.531-.154a56.569 56.569 0 0 0-7.015.013 55.778 55.778 0 0 0-7.149.865 60.532 60.532 0 0 0-13.915 4.63 58.579 58.579 0 0 0-12.292 7.94 56.259 56.259 0 0 0-9.693 10.275 56.971 56.971 0 0 0-3.707 5.628c-.547.955-1.011 1.943-1.508 2.894l-.726 1.424-.615 1.455q-.6 1.445-1.188 2.849c-.318.964-.638 1.909-.923 2.847l-.433 1.389c-.123.465-.219.934-.327 1.393l-.616 2.7c-.2.88-.28 1.77-.419 2.621-.12.856-.254 1.688-.338 2.5-.072 1.636-.139 3.189-.2 4.648.058 1.46.092 2.817.17 4.067.094 1.253.308 2.4.434 3.431.071.512.139 1 .2 1.454s.2.862.281 1.251c.187.774.348 1.431.478 1.965l.414 1.633-.039-1.685c-.007-1.091-.168-2.723-.031-4.735.056-1.009.046-2.111.168-3.314.159-1.206.284-2.5.437-3.882l.833-4.337c.426-1.5.779-3.079 1.283-4.691l.86-2.438c.148-.412.284-.832.447-1.247l.55-1.235c.374-.826.727-1.675 1.09-2.533l1.308-2.522.669-1.282.774-1.246c.528-.829 1.02-1.692 1.588-2.518.594-.811 1.191-1.629 1.777-2.465.558-.856 1.281-1.6 1.924-2.419a30.651 30.651 0 0 1 2.066-2.361c.73-.76 1.432-1.555 2.194-2.3l2.369-2.174c.781-.742 1.667-1.372 2.5-2.068.424-.338.84-.689 1.273-1.019l1.346-.93 1.347-.934a13.882 13.882 0 0 1 1.379-.892l2.824-1.695 2.944-1.482a60.476 60.476 0 0 1 12.346-4.306 62.17 62.17 0 0 1 12.623-1.3c.594.013 1.185.046 1.773.082" class="cls-1" transform="rotate(30 485.289 724.491)"/>
        <path id="Path_20171" d="M444.44 666.687c-5.417-44.729 35.385-76.28 82.2-58.326" class="cls-2" transform="translate(6.445 -33.703)"/>
        <path id="Path_20272" d="M444.44 666.687c-5.417-44.729 35.385-76.28 82.2-58.326" class="cls-2" transform="rotate(30 489.552 728.759)"/>
        <path id="Path_20172" d="M444.422 666.644l-.228-1.37-.274-1.645-.173-1.044-.113-1.2-.251-2.816c-.052-1.026-.044-2.136-.068-3.327a55.348 55.348 0 0 1 .6-7.99c.192-1.461.548-2.959.841-4.528l.642-2.346q.165-.6.334-1.2l.414-1.2q.424-1.2.858-2.439l1.047-2.438a23.633 23.633 0 0 1 1.182-2.443c.444-.8.819-1.65 1.331-2.43l1.48-2.4c.528-.786 1.1-1.553 1.652-2.34.538-.8 1.173-1.529 1.787-2.284a28.8 28.8 0 0 1 1.941-2.2 52.285 52.285 0 0 1 9.027-7.732 54.224 54.224 0 0 1 10.511-5.527c.9-.4 1.827-.693 2.745-1.008.924-.294 1.831-.629 2.768-.843l2.766-.71 2.762-.529c.909-.194 1.823-.309 2.729-.414s1.8-.242 2.689-.3c1.783-.067 3.52-.233 5.216-.161l2.5.034 2.418.185c1.587.1 3.1.345 4.554.562 1.458.183 2.83.5 4.135.785 1.31.26 2.527.612 3.667.943 2.3.586 4.223 1.368 5.823 1.926 1.591.587 2.789 1.186 3.625 1.529l1.268.565-1.344-.355c-.878-.225-2.145-.609-3.779-1-1.647-.352-3.618-.859-5.923-1.215-1.146-.206-2.362-.424-3.661-.543-1.294-.141-2.642-.364-4.068-.418-1.421-.1-2.895-.213-4.426-.182l-2.329-.026-2.394.11c-1.621.024-3.267.286-4.953.445-.839.11-1.679.279-2.533.4s-1.713.268-2.565.484a58.538 58.538 0 0 0-10.285 3.208 50.835 50.835 0 0 0-9.743 5.265 48.54 48.54 0 0 0-8.485 7.1 53.906 53.906 0 0 0-6.665 8.419c-.51.713-.885 1.5-1.328 2.235-.428.746-.867 1.477-1.225 2.241l-1.123 2.241-.946 2.258-.46 1.111q-.192.565-.383 1.12l-.76 2.193c-.4 1.467-.858 2.875-1.156 4.261a69.871 69.871 0 0 0-1.3 7.656c-.1 1.158-.2 2.243-.29 3.246l-.1 2.766c-.046.837-.04 1.593-.022 2.249s.018 1.216.023 1.668l.018 1.398z" class="cls-1" transform="translate(6.463 -33.66)"/>
        <path id="Path_20273" d="M444.422 666.644l-.228-1.37-.274-1.645-.173-1.044-.113-1.2-.251-2.816c-.052-1.026-.044-2.136-.068-3.327a55.348 55.348 0 0 1 .6-7.99c.192-1.461.548-2.959.841-4.528l.642-2.346q.165-.6.334-1.2l.414-1.2q.424-1.2.858-2.439l1.047-2.438a23.633 23.633 0 0 1 1.182-2.443c.444-.8.819-1.65 1.331-2.43l1.48-2.4c.528-.786 1.1-1.553 1.652-2.34.538-.8 1.173-1.529 1.787-2.284a28.8 28.8 0 0 1 1.941-2.2 52.285 52.285 0 0 1 9.027-7.732 54.224 54.224 0 0 1 10.511-5.527c.9-.4 1.827-.693 2.745-1.008.924-.294 1.831-.629 2.768-.843l2.766-.71 2.762-.529c.909-.194 1.823-.309 2.729-.414s1.8-.242 2.689-.3c1.783-.067 3.52-.233 5.216-.161l2.5.034 2.418.185c1.587.1 3.1.345 4.554.562 1.458.183 2.83.5 4.135.785 1.31.26 2.527.612 3.667.943 2.3.586 4.223 1.368 5.823 1.926 1.591.587 2.789 1.186 3.625 1.529l1.268.565-1.344-.355c-.878-.225-2.145-.609-3.779-1-1.647-.352-3.618-.859-5.923-1.215-1.146-.206-2.362-.424-3.661-.543-1.294-.141-2.642-.364-4.068-.418-1.421-.1-2.895-.213-4.426-.182l-2.329-.026-2.394.11c-1.621.024-3.267.286-4.953.445-.839.11-1.679.279-2.533.4s-1.713.268-2.565.484a58.538 58.538 0 0 0-10.285 3.208 50.835 50.835 0 0 0-9.743 5.265 48.54 48.54 0 0 0-8.485 7.1 53.906 53.906 0 0 0-6.665 8.419c-.51.713-.885 1.5-1.328 2.235-.428.746-.867 1.477-1.225 2.241l-1.123 2.241-.946 2.258-.46 1.111q-.192.565-.383 1.12l-.76 2.193c-.4 1.467-.858 2.875-1.156 4.261a69.871 69.871 0 0 0-1.3 7.656c-.1 1.158-.2 2.243-.29 3.246l-.1 2.766c-.046.837-.04 1.593-.022 2.249s.018 1.216.023 1.668l.018 1.398z" class="cls-1" transform="rotate(30 489.464 728.77)"/>
        <path id="Path_20173" d="M419.652 691.52c-1.606-23.167 25.93-33.2 40.4-18.243" class="cls-2" transform="translate(-12.138 -32.989)"/>
        <path id="Path_20174" d="M419.637 691.468l-.131-.645c-.062-.423-.234-1.029-.3-1.83a19.931 19.931 0 0 1-.124-2.938l.018-.885.094-.933a13.851 13.851 0 0 1 .323-2.007 20.481 20.481 0 0 1 1.409-4.4 22.231 22.231 0 0 1 6.705-8.405 23.392 23.392 0 0 1 4.988-2.958 24.356 24.356 0 0 1 11.119-2.019 22.9 22.9 0 0 1 5.123.883c.8.2 1.54.527 2.265.786.7.327 1.381.632 2.005.972a20.514 20.514 0 0 1 3.2 2.145c.433.375.845.71 1.2 1.045l.927.977a14.423 14.423 0 0 1 1.186 1.447c.254.345.39.527.39.527l-.547-.367c-.361-.231-.842-.621-1.525-1.015q-.5-.3-1.1-.668l-1.337-.7a30.784 30.784 0 0 0-3.29-1.351c-.613-.2-1.266-.367-1.93-.548-.686-.115-1.361-.332-2.092-.4a24.93 24.93 0 0 0-4.539-.29 27.465 27.465 0 0 0-4.789.589 25.489 25.489 0 0 0-4.711 1.54 23.3 23.3 0 0 0-4.308 2.425 22.417 22.417 0 0 0-3.614 3.149 23 23 0 0 0-2.753 3.59c-.358.629-.745 1.229-1.028 1.857l-.458.913-.371.913c-.117.3-.246.592-.349.885l-.276.869c-.1.284-.188.56-.278.829q-.1.414-.2.8c-.28 1.043-.427 1.96-.573 2.734-.128.776-.183 1.411-.243 1.831s-.086.653-.086.653z" class="cls-1" transform="translate(-12.123 -32.937)"/>
        <path id="Path_20175" d="M376.8 717.942c-1.3-31.223 27.561-38.083 46.346-25.838" class="cls-2" transform="translate(-10.899 -33.573)"/>
        <path id="Path_20176" d="M376.792 717.917l-.061-.757c-.035-.494-.113-1.219-.159-2.141.017-.925-.046-2.063.039-3.36l.14-2.068.332-2.281.54-2.457c.263-.829.5-1.7.831-2.57a26.488 26.488 0 0 1 2.621-5.243 25.168 25.168 0 0 1 4.084-4.8 27.035 27.035 0 0 1 5.369-3.7 28.6 28.6 0 0 1 12.332-3c1.015-.05 2.012.018 2.986.06.968.116 1.921.174 2.831.352a32.355 32.355 0 0 1 5.054 1.225c.761.259 1.483.528 2.165.789l1.891.854c1.158.594 2.156 1.122 2.941 1.623a20.707 20.707 0 0 1 1.791 1.2l.62.44-.675-.35c-.443-.224-1.075-.577-1.915-.953-.822-.411-1.858-.829-3.044-1.29l-1.924-.638c-.689-.186-1.4-.407-2.158-.6a39 39 0 0 0-4.94-.859c-.88-.125-1.794-.129-2.72-.191-.929.021-1.877-.036-2.838.051-.963.028-1.931.172-2.911.286-.97.186-1.957.34-2.927.6a25.66 25.66 0 0 0-5.675 2.125 25.185 25.185 0 0 0-5.008 3.372 25.745 25.745 0 0 0-3.916 4.359 28.85 28.85 0 0 0-2.693 4.824c-.363.807-.619 1.631-.934 2.406q-.36 1.2-.694 2.323-.259 1.14-.5 2.183l-.345 2c-.214 1.258-.265 2.369-.378 3.285-.095 1.845-.152 2.901-.152 2.901z" class="cls-1" transform="translate(-10.894 -33.548)"/>
        <path id="Path_20177" d="M242.715 690.771c25.145-53.7 101.787-26.956 85.17 30.549" class="cls-2" transform="translate(-7.022 -32.858)"/>
        <path id="Path_20178" d="M242.715 690.688s.2-.513.582-1.476l.715-1.764a22.118 22.118 0 0 1 1.036-2.359 49.041 49.041 0 0 1 3.549-6.111l1.191-1.758c.4-.617.922-1.156 1.4-1.763a34.391 34.391 0 0 1 3.27-3.619l1.884-1.818c.656-.6 1.4-1.129 2.117-1.714a27.893 27.893 0 0 1 2.264-1.695l2.472-1.561a21.468 21.468 0 0 1 2.648-1.431c.922-.429 1.821-.957 2.8-1.319l2.966-1.116a11.787 11.787 0 0 1 1.536-.477l1.57-.421a43.788 43.788 0 0 1 13.321-1.41 48.576 48.576 0 0 1 13.623 2.555 49.069 49.069 0 0 1 12.279 6.459l2.709 2.105 2.468 2.336.61.581.558.629 1.1 1.259 1.086 1.254c.344.429.644.893.965 1.333a41.435 41.435 0 0 1 5.818 11.065l.869 2.8a9.274 9.274 0 0 1 .348 1.386l.275 1.379c.163.914.382 1.8.487 2.685q.119 1.331.236 2.612a34.121 34.121 0 0 1 .092 4.882 31.611 31.611 0 0 1-.371 4.358 25.466 25.466 0 0 1-.616 3.771l-.741 3.144a23.581 23.581 0 0 1-.782 2.473l-.628 1.805-.535 1.49.211-1.575c.138-1.027.392-2.511.6-4.406l.206-3.146c.018-.572.114-1.159.091-1.776s-.018-1.251-.027-1.908a29.38 29.38 0 0 0-.218-4.153 35.161 35.161 0 0 0-.627-4.528l-.467-2.378c-.178-.8-.465-1.594-.7-2.408l-.365-1.228a7.808 7.808 0 0 0-.422-1.227q-.494-1.209-1-2.455a40.588 40.588 0 0 0-5.825-9.508 41.765 41.765 0 0 0-8.691-8.054 47.39 47.39 0 0 0-10.9-5.553 46.71 46.71 0 0 0-12.007-2.421c-1.013-.033-2.023-.135-3.027-.116l-3 .1c-1 .044-1.97.225-2.948.326-.487.068-.979.1-1.46.185l-1.426.3-1.419.3a9.755 9.755 0 0 0-1.393.35l-2.713.827c-.9.258-1.733.683-2.592 1.008a22.264 22.264 0 0 0-2.487 1.106l-2.363 1.223c-.788.386-1.468.924-2.2 1.359-.709.469-1.445.883-2.1 1.376l-1.913 1.494a36.254 36.254 0 0 0-3.449 3.009c-.523.508-1.1.951-1.546 1.48l-1.353 1.507a32.924 32.924 0 0 0-2.375 2.805l-1.911 2.494c-1.106 1.562-1.892 2.873-2.468 3.727z" class="cls-1" transform="translate(-7.022 -32.776)"/>
        <path id="Rectangle_3264" d="M0 0H21.555V18.604H0z" class="cls-2" transform="translate(156.762 603.793)"/>
        <path id="Rectangle_3280" d="M0 0H21.555V18.604H0z" class="cls-2" transform="rotate(-13 2783.47 153.9)"/>
    </g>
</svg>
