<svg xmlns="http://www.w3.org/2000/svg" id="Icon-White" width="41" height="41" viewBox="0 0 41 41">
    <defs>
        <style>
            .cls-2{fill:#fff;fill-rule:evenodd}
        </style>
    </defs>
    <g id="Icon" transform="translate(6.293 2.419)">
        <g id="Group_5253">
            <path id="Path_20299" d="M170.92 176.362a14.444 14.444 0 0 1-3.684-7.315 14.931 14.931 0 0 0-.347 3.211A14.769 14.769 0 0 0 180.293 187c-3.023-1.239-4.511-3-5.127-4.861-1.012-3.056.337-6.372 1.1-8.052 1.022-2.243.937-4.489-2.019-4.03 0 0 2.25-3.28 7.289-2.5l-1.24.662a4.934 4.934 0 0 1 2.526 4.021c4.8-6.652-7.839-11.561-4.328-18.133-5.832 3.659-13.506 12.338-7.576 22.25" class="cls-2" transform="translate(-166.889 -150.839)"/>
            <path id="Path_20300" d="M266.635 151.464c5.54-6.274 2.788-10.748.006-14.493-2.177-2.93-3.437-6.426 1.08-9.7-2.04 8.244 17.771 12.683 8.708 27.135a11.326 11.326 0 0 0 3.58-4.784 14.013 14.013 0 0 1-2.225 6.972c-6.381 10.995-20.9 5.911-11.15-5.131" class="cls-2" transform="translate(-251.597 -127.272)"/>
        </g>
    </g>
</svg>
